<svg width="19" height="19" viewBox="0 0 19 19" fill="none" xmlns="http://www.w3.org/2000/svg">
<path d="M6 18.2499H1.5C1.30109 18.2499 1.11032 18.1709 0.96967 18.0302C0.829018 17.8896 0.75 17.6988 0.75 17.4999V13.3105C0.75 13.2121 0.769399 13.1145 0.80709 13.0235C0.844781 12.9325 0.900026 12.8499 0.96967 12.7802L12.2197 1.53022C12.3603 1.38956 12.5511 1.31055 12.75 1.31055C12.9489 1.31055 13.1397 1.38956 13.2803 1.53022L17.4697 5.71956C17.6103 5.86021 17.6893 6.05097 17.6893 6.24989C17.6893 6.4488 17.6103 6.63956 17.4697 6.78022L6 18.2499Z" stroke="#555960" stroke-width="1.5" stroke-linecap="round" stroke-linejoin="round"/>
</svg>
